<svg height="512pt" viewBox="-40 0 512 512.001" width="512pt" xmlns="http://www.w3.org/2000/svg"><path d="m255.933594 173.5625c0-44.277344-36.023438-80.300781-80.300782-80.300781-44.277343 0-80.300781 36.023437-80.300781 80.300781 0 44.28125 36.023438 80.304688 80.300781 80.304688 44.277344 0 80.300782-36.023438 80.300782-80.304688zm-80.300782 50.296875c-27.734374 0-50.296874-22.5625-50.296874-50.296875 0-27.730469 22.5625-50.296875 50.296874-50.296875 27.734376 0 50.296876 22.566406 50.296876 50.296875 0 27.734375-22.5625 50.296875-50.296876 50.296875zm0 0"/><path d="m319.441406 278.523438 10.714844-19.375.070312-.128907c13.765626-25.480469 21.039063-54.316406 21.039063-83.386719 0-96.84375-78.789063-175.632812-175.632813-175.632812s-175.632812 78.789062-175.632812 175.632812c0 29.074219 7.292969 57.9375 21.089844 83.46875l132.625 239.863282c4.402344 7.976562 12.800781 12.929687 21.917968 12.929687 9.117188 0 17.515626-4.953125 21.914063-12.917969l20.949219-37.886718c21.058594 30.714844 56.402344 50.910156 96.382812 50.910156 64.394532 0 116.785156-52.390625 116.785156-116.785156 0-62.867188-49.933593-114.285156-112.222656-116.691406zm-143.808594 198.074218-128.179687-231.820312c-11.414063-21.148438-17.449219-45.054688-17.449219-69.144532 0-80.300781 65.332032-145.628906 145.628906-145.628906 80.300782 0 145.628907 65.328125 145.628907 145.628906 0 24.085938-6.019531 47.964844-17.402344 69.0625l-21.140625 38.234376c-48.808594 14-84.628906 59.035156-84.628906 112.28125 0 11.261718 1.605468 22.152343 4.597656 32.460937zm139.246094 5.398438c-47.851562 0-86.785156-38.929688-86.785156-86.785156 0-47.847657 38.933594-86.78125 86.785156-86.78125 47.851563 0 86.78125 38.929687 86.78125 86.78125 0 47.855468-38.929687 86.785156-86.78125 86.785156zm0 0"/><path d="m350.824219 380.082031h-20.945313v-20.945312c0-8.285157-6.714844-15-15-15s-15.003906 6.714843-15.003906 15v20.945312h-20.945312c-8.285157 0-15.003907 6.71875-15.003907 15.003907 0 8.285156 6.71875 15.003906 15.003907 15.003906h20.945312v20.945312c0 8.285156 6.71875 15 15.003906 15s15-6.714844 15-15v-20.945312h20.945313c8.285156 0 15.003906-6.71875 15.003906-15.003906 0-8.285157-6.71875-15.003907-15.003906-15.003907zm0 0"/></svg>